<svg xmlns="http://www.w3.org/2000/svg" viewBox="0 0 512 512" role="img" aria-label="Rotacion rural">
  <rect width="512" height="512" rx="92" fill="#f6eee4"/>
  <path d="M90 348c72-58 129-86 190-86 48 0 88 17 142 54v106H90z" fill="#486f57"/>
  <path d="M96 352c62-48 119-72 178-72 52 0 94 18 142 54" fill="none" stroke="#fffaf2" stroke-width="22" stroke-linecap="round"/>
  <rect x="145" y="150" width="222" height="151" rx="28" fill="#b85736"/>
  <path d="M181 150v-24c0-35 28-63 63-63h24c35 0 63 28 63 63v24" fill="none" stroke="#87371f" stroke-width="24" stroke-linecap="round"/>
  <path d="M256 181v88M212 225h88" stroke="#fffaf2" stroke-width="32" stroke-linecap="round"/>
  <circle cx="398" cy="142" r="38" fill="#dfb451"/>
</svg>
